<?xml version="1.0" standalone="no"?>
<!DOCTYPE svg PUBLIC "-//W3C//DTD SVG 20010904//EN"
 "http://www.w3.org/TR/2001/REC-SVG-20010904/DTD/svg10.dtd">
<svg version="1.0" xmlns="http://www.w3.org/2000/svg"
 width="500.000000pt" height="500.000000pt" viewBox="0 0 500.000000 500.000000"
 preserveAspectRatio="xMidYMid meet">
<metadata>
Created by potrace 1.11, written by Peter Selinger 2001-2013
</metadata>
<g transform="translate(0.000000,500.000000) scale(0.100000,-0.100000)"
fill="#000000" stroke="none">
<path d="M1985 4856 l-391 -52 -390 29 -390 29 -322 -107 c-190 -62 -325 -112
-329 -121 -3 -8 29 -87 71 -175 l76 -162 -87 -161 -86 -161 52 -480 53 -480
-121 -539 c-96 -429 -121 -554 -121 -615 0 -84 136 -1532 148 -1570 7 -23 23
-27 472 -113 l465 -88 747 127 746 127 502 -98 501 -98 586 25 c322 14 589 29
593 34 4 4 38 106 75 227 l68 218 -102 332 -102 332 95 248 c53 137 96 253 96
258 0 6 -63 99 -139 207 l-139 196 93 437 92 436 7 314 7 313 96 568 c52 313
92 571 89 574 -3 3 -152 -18 -331 -48 l-325 -54 -338 49 -337 48 -590 24
c-324 13 -615 23 -645 23 -30 -1 -231 -24 -445 -53z m1610 -28 c6 -6 -506
-353 -521 -353 -14 0 -593 386 -594 395 0 6 1109 -36 1115 -42z m-1205 35 c0
-17 -29 -185 -32 -189 -5 -4 -629 104 -635 109 -2 2 58 12 134 22 76 10 210
28 298 40 175 25 235 29 235 18z m314 -187 c143 -97 261 -178 264 -181 3 -3
-8 -1 -24 5 -16 5 -146 44 -289 85 -143 42 -260 77 -261 78 -1 1 5 46 14 100
9 63 19 96 26 94 6 -3 128 -84 270 -181z m-1282 108 c65 -4 115 -10 113 -15
-5 -6 -404 -289 -441 -311 -8 -6 -49 50 -128 176 -64 101 -116 185 -116 187 0
3 102 -3 228 -12 125 -10 280 -21 344 -25z m2585 -4 c153 -23 282 -42 287 -43
8 -3 -245 -229 -262 -235 -4 -1 -79 70 -167 158 -88 88 -154 160 -147 160 6 0
137 -18 289 -40z m853 35 c0 -3 -117 -63 -260 -135 l-260 -130 6 87 c4 49 9
90 11 93 3 4 407 76 496 89 4 1 7 -1 7 -4z m100 -2 c0 -20 -162 -971 -169
-987 -5 -15 -54 57 -224 331 -119 193 -217 353 -217 356 0 7 588 305 603 306
4 1 7 -2 7 -6z m-1137 -161 l157 -157 -237 20 c-141 12 -238 24 -238 30 0 12
148 264 155 265 3 0 76 -71 163 -158z m-3090 126 c-11 -13 -105 -117 -207
-233 -103 -115 -189 -210 -192 -210 -9 0 -135 277 -129 283 8 9 515 180 534
181 10 1 9 -5 -6 -21z m216 -177 c58 -93 99 -167 94 -172 -9 -9 -421 -229
-428 -229 -4 0 167 503 194 574 14 35 -1 53 140 -173z m2645 167 c-31 -51
-137 -224 -140 -227 -4 -5 -287 -62 -290 -59 -2 3 427 298 433 298 2 0 1 -6
-3 -12z m-2914 -265 c-49 -142 -93 -271 -99 -286 l-11 -28 -88 46 c-49 25 -97
51 -106 58 -17 12 -1 33 184 240 111 125 204 227 205 227 2 0 -37 -116 -85
-257z m1294 202 c177 -31 329 -59 339 -63 15 -6 -11 -34 -144 -152 -89 -80
-165 -144 -168 -142 -3 2 -59 65 -125 140 -65 75 -145 167 -178 205 -33 37
-56 67 -52 67 4 0 152 -25 328 -55z m-185 -167 l180 -206 -37 -6 c-20 -3 -152
-20 -292 -36 -140 -17 -265 -33 -278 -36 -17 -3 -23 -1 -20 9 7 29 252 487
259 485 4 -2 89 -96 188 -210z m-364 -40 c-65 -123 -121 -227 -125 -231 -8 -9
-190 143 -186 157 2 9 419 304 425 300 1 -1 -50 -103 -114 -226z m2889 125
c-4 -43 -8 -80 -10 -82 -4 -5 -208 -40 -212 -37 -2 3 220 196 225 196 2 0 1
-35 -3 -77z m-1782 -261 c86 -141 155 -258 154 -259 -3 -3 -638 216 -644 222
-4 3 321 295 328 295 3 -1 76 -116 162 -258z m194 168 c169 -49 309 -91 311
-94 5 -4 -283 -329 -296 -334 -8 -3 -45 55 -268 416 -35 56 -61 102 -58 102 2
0 142 -40 311 -90z m714 -34 c0 -9 -80 -329 -83 -332 -1 -2 -58 58 -126 132
-68 74 -121 137 -120 138 5 4 299 65 317 65 6 1 12 -1 12 -3z m300 -12 c107
-8 203 -18 213 -22 15 -6 -17 -32 -146 -120 -91 -61 -168 -112 -171 -112 -6 0
-136 254 -136 265 0 8 27 6 240 -11z m556 -1 c-2 -10 -19 -90 -36 -178 -17
-88 -34 -168 -38 -179 -6 -14 -27 22 -86 153 -44 94 -76 175 -72 179 8 7 172
39 214 41 18 1 22 -3 18 -16z m-697 -265 c1 -7 -198 -72 -204 -66 -2 2 14 73
35 158 22 85 39 157 40 160 1 6 129 -242 129 -252z m949 -93 c110 -176 199
-321 198 -323 -2 -1 -471 234 -503 252 -2 1 77 387 83 406 5 13 6 13 14 0 5
-8 99 -159 208 -335z m-573 149 c-14 -75 -27 -139 -29 -142 -7 -7 -267 71
-264 80 5 14 313 219 316 209 2 -5 -9 -71 -23 -147z m145 -37 c40 -87 70 -160
68 -162 -5 -5 -191 36 -200 44 -4 4 4 67 17 140 14 74 25 139 25 145 0 23 21
-16 90 -167z m-1035 -15 c10 -89 16 -164 14 -166 -5 -4 -320 21 -324 26 -1 2
61 74 139 160 77 86 144 153 147 150 3 -4 14 -80 24 -170z m-2083 -35 c-26
-108 -51 -199 -55 -203 -5 -5 -210 104 -306 163 -23 15 -17 18 190 128 118 63
215 112 216 111 2 -2 -18 -91 -45 -199z m179 126 c49 -42 88 -80 87 -84 -4
-10 -270 -230 -273 -227 -4 4 89 388 93 388 2 0 44 -34 93 -77z m2038 -52 c62
-68 108 -128 104 -132 -5 -5 -48 -22 -96 -38 -63 -21 -89 -27 -92 -18 -3 12
-35 294 -35 311 0 5 2 7 4 5 2 -2 54 -60 115 -128z m-1263 24 c-8 -22 -490
-724 -497 -725 -3 0 -34 141 -68 313 -34 171 -64 319 -67 328 -4 15 6 17 630
98 4 0 5 -6 2 -14z m340 -85 c142 -50 292 -102 331 -116 l72 -26 -306 -249
c-169 -137 -310 -249 -313 -249 -3 0 -16 143 -28 318 -13 174 -26 338 -29 365
-3 26 -2 47 4 47 5 0 126 -41 269 -90z m-1852 18 c53 -28 94 -53 91 -56 -11
-11 -328 -152 -332 -148 -7 7 126 256 137 256 5 0 52 -23 104 -52z m1572 -285
c13 -175 24 -337 24 -360 l0 -43 -275 0 c-151 0 -275 2 -275 5 0 11 493 725
497 721 3 -2 15 -147 29 -323z m-656 -67 c33 -164 59 -300 57 -302 -2 -3 -350
306 -405 360 l-24 23 149 125 c118 100 149 122 155 109 4 -9 34 -151 68 -315z
m-790 84 c0 -138 -3 -180 -12 -180 -7 1 -93 45 -190 99 l-178 98 178 81 c97
44 183 81 190 81 9 1 12 -41 12 -179z m233 60 c81 -49 104 -67 94 -76 -6 -6
-76 -47 -154 -92 l-143 -81 0 185 0 186 48 -29 c26 -15 96 -57 155 -93z m2582
40 c14 -27 25 -51 25 -53 0 -2 -47 5 -105 17 -58 11 -105 23 -105 26 0 6 134
58 152 59 4 1 19 -21 33 -49z m738 1 l68 -16 -68 -74 -68 -73 -32 89 c-18 50
-33 93 -33 96 0 7 29 2 133 -22z m-1027 -34 c6 -6 -62 -398 -75 -431 -6 -15
-35 33 -129 212 -67 127 -122 235 -122 240 0 8 317 -12 326 -21z m-468 -250
l-71 -237 -219 0 c-140 0 -218 4 -216 10 3 11 569 472 574 468 1 -2 -29 -110
-68 -241z m241 7 c68 -129 121 -237 119 -240 -3 -2 -93 -3 -200 -2 l-195 3 70
238 c39 130 73 237 76 237 3 0 62 -106 130 -236z m444 205 c95 -20 107 -25
107 -43 0 -26 -56 -345 -61 -350 -5 -5 -199 404 -199 418 0 4 10 6 23 3 12 -3
70 -15 130 -28z m1186 -93 l222 -113 -62 -7 c-34 -3 -105 -6 -158 -6 l-96 0
-37 68 c-21 37 -52 91 -69 120 -17 28 -29 52 -26 52 2 0 104 -51 226 -114z
m-297 17 c-5 -150 1 -141 -62 -93 -30 22 -56 45 -58 49 -3 9 105 131 117 131
3 0 5 -39 3 -87z m130 -145 c-20 -4 -52 -7 -69 -7 -32 -1 -33 1 -33 37 0 22 3
74 7 116 l6 77 63 -108 63 -108 -37 -7z m-1058 -80 c35 -75 62 -139 59 -142
-4 -3 -69 -6 -145 -6 -98 0 -138 3 -138 12 0 16 71 400 77 418 5 15 20 -13
147 -282z m402 259 c5 -4 -73 -197 -85 -209 -3 -4 -33 45 -64 109 l-58 116
101 -6 c56 -3 104 -7 106 -10z m-3298 -111 c100 -55 181 -102 180 -106 -40
-97 -283 -618 -287 -615 -11 12 -97 826 -86 823 6 -2 93 -48 193 -102z m3336
-17 c-35 -32 -66 -59 -69 -59 -4 0 3 19 53 143 l15 38 33 -31 32 -32 -64 -59z
m-2689 -234 c39 -185 68 -334 64 -333 -4 2 -113 112 -243 245 l-237 242 68 39
c148 86 268 151 271 147 3 -2 37 -155 77 -340z m2489 218 l56 -112 -87 -61
c-47 -33 -88 -59 -89 -57 -2 1 8 65 21 142 36 208 36 207 40 204 1 -2 28 -54
59 -116z m-2290 -103 c107 -96 195 -177 195 -180 1 -9 -277 -295 -281 -290 -3
3 -35 147 -72 320 -37 173 -70 324 -73 335 -5 18 -4 18 15 5 11 -8 108 -94
216 -190z m2892 98 c30 -22 51 -44 47 -49 -7 -6 -96 -36 -221 -74 -20 -6 -13
8 40 79 34 47 67 85 71 86 4 0 33 -19 63 -42z m622 -57 c-4 -12 -421 -351
-426 -346 -2 2 15 66 38 142 24 76 47 153 52 170 l9 32 152 4 c84 1 158 4 165
5 8 1 12 -2 10 -7z m-438 -52 c-97 -87 -144 -123 -138 -109 3 8 18 45 34 83
l28 67 60 0 61 -1 -45 -40z m474 -257 c-4 -155 -10 -286 -14 -292 -7 -11 -452
189 -447 201 4 11 460 380 464 376 2 -2 0 -131 -3 -285z m-3936 26 c202 -203
248 -254 234 -260 -26 -11 -752 -140 -767 -136 -8 2 37 113 133 326 80 177
146 322 147 322 0 0 114 -114 253 -252z m3333 229 c-22 -58 -70 -157 -77 -157
-10 0 -173 94 -174 100 0 5 226 78 247 79 9 1 10 -6 4 -22z m142 -160 c-26
-86 -49 -157 -53 -157 -3 0 -34 29 -68 63 l-63 64 112 97 c61 53 113 95 115
93 2 -2 -17 -74 -43 -160z m-414 38 l20 -35 -81 0 c-45 0 -79 2 -76 5 20 20
103 73 109 70 4 -3 16 -21 28 -40z m89 -15 c46 -29 46 -30 17 -30 -36 0 -48 7
-64 38 -15 29 -10 28 47 -8z m-638 -125 c0 -47 -2 -85 -4 -85 -9 0 -246 152
-252 161 -3 5 49 9 125 9 l131 0 0 -85z m-142 -40 c68 -42 120 -80 117 -83 -9
-9 -289 -171 -291 -169 -2 1 0 82 3 180 6 177 6 177 27 164 12 -8 76 -49 144
-92z m-1770 -320 l1 -190 -75 80 c-42 44 -107 114 -144 156 l-69 75 137 144
137 144 6 -110 c4 -60 7 -194 7 -299z m2785 274 c-10 -4 -37 -10 -60 -14 l-43
-7 0 73 0 73 60 -59 c50 -49 57 -61 43 -66z m-589 -71 c-3 -29 -9 -68 -13 -86
l-6 -33 -97 68 c-53 37 -94 70 -92 73 3 3 49 10 102 16 53 6 101 12 105 13 4
0 5 -23 1 -51z m236 47 c0 -6 -212 -156 -216 -153 -1 2 2 38 8 81 l11 77 99 0
c54 0 98 -2 98 -5z m152 -17 c29 -6 54 -12 56 -14 2 -1 -19 -36 -47 -79 -54
-85 -51 -87 -66 25 -4 25 -9 53 -11 63 -6 20 -2 21 68 5z m353 -139 c59 -83
105 -153 103 -155 -4 -3 -354 61 -446 81 -20 5 -6 20 105 115 70 60 129 109
130 109 1 1 49 -67 108 -150z m-451 109 c3 -18 11 -62 17 -97 5 -34 8 -65 6
-67 -4 -5 -258 24 -264 29 -3 4 220 165 229 166 4 1 9 -14 12 -31z m255 9
c-15 -12 -51 -42 -80 -67 l-53 -45 27 45 c15 25 31 51 36 58 4 8 23 17 42 22
53 12 56 11 28 -13z m524 -159 c15 -5 27 -13 27 -16 0 -4 -45 -30 -99 -57
l-100 -51 -100 143 c-56 78 -101 144 -101 147 0 3 78 -31 173 -76 94 -44 184
-84 200 -90z m-1357 135 c-2 -10 -10 -76 -17 -148 -6 -71 -13 -131 -14 -133
-5 -6 -255 123 -253 130 3 9 268 167 281 167 5 1 6 -7 3 -16z m152 -61 c50
-36 92 -68 92 -71 0 -8 -232 -142 -237 -137 -3 2 0 48 6 103 20 175 21 184 34
176 7 -3 54 -36 105 -71z m-2445 -100 c-193 -345 -419 -742 -423 -742 -9 0
-342 661 -336 667 6 6 738 140 774 142 23 1 23 0 -15 -67z m233 -102 c80 -89
145 -162 143 -163 -2 -2 -148 -93 -324 -202 -176 -109 -344 -214 -374 -233
l-54 -35 27 49 c161 290 422 744 428 744 4 0 73 -72 154 -160z m1023 103 c-1
-12 -270 -235 -276 -230 -3 3 1 52 9 109 l13 103 110 11 c149 15 145 15 144 7z
m583 -3 c44 0 78 -3 76 -8 -2 -6 -415 -395 -499 -470 l-25 -22 -23 222 c-12
123 -25 238 -28 257 l-6 34 213 -6 c117 -4 249 -7 292 -7z m943 -11 c49 -5 91
-12 93 -14 5 -5 -149 -185 -158 -185 -5 0 -110 205 -110 216 0 3 19 3 43 0 23
-4 82 -11 132 -17z m-156 -95 c29 -58 52 -107 50 -108 -5 -4 -337 69 -344 75
-5 5 214 136 230 138 6 0 34 -47 64 -105z m-1293 -145 c14 -127 23 -236 22
-241 -3 -9 -368 202 -368 213 0 10 312 270 317 265 3 -2 16 -109 29 -237z
m659 104 c16 -57 27 -105 24 -107 -7 -6 -542 -226 -545 -223 -1 1 107 104 239
228 137 128 245 221 248 215 3 -6 19 -57 34 -113z m133 59 l112 -57 -93 -47
-94 -46 -26 94 c-29 101 -31 114 -19 113 4 0 58 -26 120 -57z m1067 10 l240
-47 -209 -159 c-133 -101 -211 -154 -215 -147 -4 6 -20 91 -35 189 -15 97 -29
185 -32 195 -3 9 -2 17 3 16 4 0 116 -21 248 -47z m505 36 c-1 -7 -34 -166
-74 -353 -57 -266 -75 -332 -79 -305 -4 19 -16 143 -27 275 -11 132 -22 252
-25 268 -4 26 1 30 93 77 106 54 112 56 112 38z m-759 -193 c16 -98 28 -181
27 -186 -3 -9 -218 166 -219 178 -1 9 154 193 159 188 2 -1 16 -82 33 -180z
m-3551 -209 c113 -221 160 -323 154 -332 -7 -11 -493 -335 -545 -364 -15 -9
-15 -2 2 73 158 712 214 955 220 949 4 -4 80 -151 169 -326z m4106 -58 c14
-163 25 -301 23 -306 -4 -12 -483 319 -481 332 0 4 94 79 209 166 205 155 208
157 215 131 4 -14 19 -159 34 -323z m-928 62 c138 -129 250 -236 249 -236 -7
-6 -878 123 -879 130 0 5 75 91 168 191 164 177 170 181 190 166 12 -9 134
-122 272 -251z m-39 221 c94 -21 173 -40 175 -42 5 -6 126 -372 123 -375 -1
-1 -69 61 -152 139 -82 78 -192 181 -244 229 -51 48 -89 88 -84 88 6 0 87 -17
182 -39z m-365 -23 c-47 -57 -194 -211 -194 -204 0 4 20 43 44 88 42 77 49 84
108 115 35 17 65 32 66 33 2 0 -9 -15 -24 -32z m-1770 -150 c3 -50 6 -149 6
-219 l0 -128 -42 -5 c-86 -11 -713 -17 -698 -7 101 65 717 450 721 450 3 1 9
-40 13 -91z m1546 -38 l-61 -122 -57 6 c-31 3 -124 9 -205 12 -81 4 -144 10
-140 15 11 10 517 219 521 214 2 -1 -24 -58 -58 -125z m936 31 l101 -83 -45
-82 c-54 -95 -51 -91 -57 -84 -13 13 -124 350 -113 341 7 -5 59 -47 114 -92z
m-1729 -17 c90 -54 162 -98 161 -99 -5 -3 -320 14 -323 17 -8 8 -17 178 -10
178 4 0 82 -43 172 -96z m2111 -263 c105 -73 192 -134 192 -136 0 -2 -8 -1
-17 1 -10 2 -126 29 -258 59 -132 30 -248 59 -257 63 -15 6 -11 18 34 99 l51
93 31 -23 c17 -13 118 -83 224 -156z m-843 24 c221 -30 406 -55 413 -55 7 0
12 -5 12 -11 0 -13 -168 -391 -178 -401 -7 -7 -642 468 -687 514 l-20 20 30
-6 c17 -3 210 -31 430 -61z m-170 -203 c176 -134 324 -248 329 -253 9 -8 -48
6 -439 114 l-230 64 -3 167 c-2 134 0 166 10 160 7 -5 157 -118 333 -252z
m993 54 c150 -35 275 -66 278 -68 5 -5 -82 -312 -95 -335 -4 -8 -94 75 -251
232 -134 134 -235 242 -225 239 11 -2 143 -33 293 -68z m-108 -181 c157 -157
238 -245 226 -245 -17 0 -627 77 -653 83 -11 2 164 407 176 407 4 0 116 -110
251 -245z m-2730 -19 l0 -225 -307 176 c-170 97 -339 194 -378 217 l-70 41
185 5 c102 3 272 7 378 8 l192 2 0 -224z m-425 -20 l376 -215 -43 -5 c-49 -6
-900 -37 -904 -33 -5 5 181 467 188 467 4 0 177 -96 383 -214z m-438 182 c-3
-7 -42 -106 -87 -220 -56 -143 -87 -208 -97 -208 -30 0 -343 84 -341 91 4 9
509 347 522 348 4 1 6 -5 3 -11z m4137 -228 l117 -165 -167 -3 c-92 -1 -168
-1 -170 1 -3 3 73 271 92 326 6 17 -9 35 128 -159z m-2379 87 c-16 -12 -94
-66 -172 -120 -129 -88 -143 -95 -143 -74 0 29 20 187 25 205 3 9 45 12 162
12 l158 -1 -30 -22z m543 13 c-4 -11 -448 -490 -455 -490 -5 0 4 278 13 418
l6 82 220 0 c135 0 218 -4 216 -10z m446 -101 l338 -93 -293 -147 c-162 -82
-299 -148 -304 -148 -6 -1 -32 101 -58 227 -27 125 -51 235 -54 245 -4 15 -1
18 14 14 10 -3 170 -47 357 -98z m-931 -251 l-8 -158 -177 118 c-98 64 -176
120 -175 125 1 4 83 63 182 131 l180 123 3 -91 c1 -50 -1 -162 -5 -248z m583
80 c26 -125 46 -229 43 -232 -2 -2 -132 -7 -289 -11 l-285 -7 31 33 c265 291
438 469 444 457 4 -7 29 -115 56 -240z m1107 18 c186 -24 340 -46 342 -48 2
-2 -91 -106 -207 -232 -115 -125 -214 -224 -218 -219 -8 9 -260 530 -260 538
0 3 1 5 3 5 1 0 154 -20 340 -44z m-3688 -87 c2 -3 -6 -285 -18 -628 -12 -343
-25 -615 -29 -604 -6 14 -328 1318 -328 1328 0 5 369 -91 375 -96z m3262 89
c-2 -7 -12 -40 -21 -73 -9 -33 -49 -154 -88 -268 -53 -156 -74 -207 -85 -203
-7 3 -97 65 -199 138 l-185 132 283 143 c156 78 287 142 292 142 4 1 6 -5 3
-11z m187 -257 c70 -144 125 -265 123 -267 -7 -7 -446 -38 -452 -33 -4 5 179
541 191 561 4 5 7 8 9 6 1 -2 60 -122 129 -267z m-1516 -7 c-2 -1 -61 4 -133
12 -71 7 -138 14 -147 14 -18 0 -23 18 -32 127 l-6 63 160 -107 c88 -58 159
-107 158 -109z m2510 204 c-47 -128 -164 -428 -168 -428 -7 0 -170 411 -170
428 0 9 42 12 171 12 133 0 170 -3 167 -12z m-3448 -12 c-19 -17 -490 -417
-511 -434 -14 -10 -44 17 -219 198 -111 116 -201 213 -198 215 5 6 639 32 813
34 110 1 127 -1 115 -13z m45 -248 c-3 -134 -8 -270 -11 -304 l-5 -61 -256 73
c-141 41 -257 75 -259 77 -3 3 525 457 532 457 3 0 2 -109 -1 -242z m3121 22
c48 -121 85 -222 82 -225 -3 -3 -138 -4 -301 -3 l-297 3 206 223 c113 122 209
222 214 222 4 0 48 -99 96 -220z m-3767 -192 l53 -57 -223 -422 -224 -421 -3
53 c-3 52 21 828 34 1092 l7 128 151 -158 c83 -87 176 -184 205 -215z m-515
-681 l73 -297 -85 -40 c-47 -22 -89 -37 -92 -33 -5 6 -111 1064 -126 1258 -3
49 81 -277 230 -888z m2982 731 c101 -72 181 -135 177 -139 -19 -17 -343 -117
-344 -106 0 7 -6 94 -12 195 -7 100 -11 182 -9 182 2 0 86 -59 188 -132z m714
-127 c0 -5 -30 -95 -66 -201 -64 -182 -68 -191 -84 -173 -51 54 -301 343 -298
344 2 1 358 32 431 38 9 0 17 -3 17 -8z m563 -263 c-63 -150 -135 -324 -161
-386 -25 -61 -49 -109 -53 -105 -9 9 -289 740 -289 754 0 5 121 9 309 9 l309
0 -115 -272z m-3376 186 c134 -38 243 -72 243 -75 0 -7 -348 -383 -358 -386
-5 -2 -99 322 -149 516 -5 18 -3 23 8 19 8 -3 123 -36 256 -74z m-227 -205
c39 -139 72 -261 76 -271 4 -14 -46 -43 -296 -168 l-302 -151 89 168 c270 514
358 681 361 678 2 -1 34 -117 72 -256z m3214 -114 c74 -193 133 -352 131 -353
-2 -2 -96 71 -208 163 l-205 168 58 166 c71 203 81 229 86 216 2 -6 64 -168
138 -360z m622 62 c48 -158 85 -290 82 -292 -7 -7 -469 -155 -484 -155 -7 0
59 168 145 374 86 206 159 372 162 368 4 -4 46 -136 95 -295z m-1427 9 c-62
-152 -116 -270 -120 -263 -13 24 -120 410 -116 420 3 10 338 128 345 122 2 -2
-47 -127 -109 -279z m316 91 c86 -98 155 -181 152 -183 -8 -8 -530 -204 -543
-204 -6 0 41 128 105 285 64 157 119 284 123 282 3 -1 77 -82 163 -180z
m-1537 75 c-39 -100 -95 -221 -100 -219 -52 17 -488 214 -488 220 0 4 133 7
296 7 163 0 294 -4 292 -8z m516 -14 c-10 -13 -56 -65 -102 -115 l-84 -93
-106 96 c-59 53 -116 105 -127 115 -19 19 -14 19 209 19 l229 0 -19 -22z m405
6 c5 -5 -160 -254 -168 -254 -6 0 -141 252 -141 265 0 7 301 -4 309 -11z
m-714 -148 l80 -75 -174 -1 c-161 0 -173 1 -167 18 4 9 26 61 48 114 l42 96
46 -38 c25 -22 81 -73 125 -114z m510 -124 c-4 -5 -307 38 -328 46 -14 6 0 27
84 120 l102 113 73 -138 c40 -76 71 -139 69 -141z m-1102 150 l268 -119 -271
-214 c-149 -118 -276 -216 -282 -218 -8 -2 -9 9 -5 35 4 22 7 173 7 337 0 163
3 297 8 297 4 0 128 -53 275 -118z m-320 -450 l-8 -103 -172 128 c-95 70 -172
131 -173 135 0 4 80 93 178 198 l177 191 3 -223 c1 -123 -1 -269 -5 -326z
m1723 319 c30 -106 54 -194 52 -196 -4 -4 -269 142 -282 155 -5 5 27 64 75
139 64 99 86 126 91 113 4 -9 33 -104 64 -211z m-706 -13 c0 -24 -39 -300 -42
-304 -2 -2 -76 69 -163 156 l-160 160 183 0 c139 0 182 -3 182 -12z m234 -18
c82 -11 151 -21 152 -23 4 -4 -360 -255 -380 -263 -10 -4 -8 28 6 143 23 179
22 175 50 168 13 -2 90 -14 172 -25z m-465 -149 l162 -170 -33 -5 c-50 -9
-832 -85 -835 -82 -4 4 530 426 538 426 3 0 79 -76 168 -169z m1919 -71 c90
-73 159 -137 155 -141 -8 -8 -656 -279 -666 -279 -3 0 22 69 54 153 33 83 89
228 125 320 l66 168 51 -44 c29 -23 125 -103 215 -177z m-490 63 c-213 -206
-268 -257 -271 -252 -24 29 -109 193 -102 196 236 91 501 189 503 187 2 -1
-56 -60 -130 -131z m-594 35 c80 -45 145 -83 143 -84 -6 -7 -552 -232 -555
-230 -1 2 43 75 99 162 56 88 112 176 125 197 14 20 28 37 33 37 5 0 74 -37
155 -82z m747 35 c-10 -27 -63 -162 -117 -302 l-98 -254 -93 99 -93 99 207
202 c115 111 209 202 210 203 2 0 -6 -21 -16 -47z m-1096 -182 c-65 -100 -120
-181 -124 -181 -3 1 -34 27 -69 58 l-63 57 183 126 c101 70 184 125 186 124 2
-2 -49 -84 -113 -184z m-1646 -133 c12 -134 24 -255 27 -270 4 -19 1 -28 -7
-28 -17 0 -639 234 -639 240 0 5 579 298 591 299 3 1 15 -108 28 -241z m199
92 c156 -117 163 -124 145 -140 -107 -98 -275 -241 -279 -238 -4 5 -53 467
-54 507 0 9 4 10 13 4 6 -5 86 -65 175 -133z m3553 -94 c-32 -103 -62 -187
-67 -187 -12 1 -354 214 -354 221 0 5 472 158 477 155 2 -1 -24 -86 -56 -189z
m-1518 77 l56 -98 -42 -3 c-104 -7 -612 -31 -613 -29 -3 2 528 226 537 227 3
0 31 -44 62 -97z m-818 -78 c72 -65 112 -60 -320 -40 -176 8 -349 15 -385 16
-36 1 -56 4 -45 6 17 5 617 69 670 72 11 0 46 -23 80 -54z m1840 -133 c-5 -6
-527 -91 -555 -91 -8 0 113 53 270 118 l285 119 3 -70 c2 -39 0 -73 -3 -76z
m201 46 c82 -51 142 -94 134 -95 -8 -2 -78 7 -155 20 l-140 22 -3 73 c-2 41 1
72 7 72 5 0 76 -42 157 -92z m-2543 23 c230 -10 420 -20 422 -22 2 -3 -268
-51 -601 -108 -333 -57 -607 -101 -610 -98 -3 3 56 59 132 126 l137 121 51 0
c28 -1 239 -9 469 -19z m1451 -48 c29 -32 67 -74 84 -94 l31 -36 -117 23 c-64
12 -242 46 -394 75 -152 29 -275 55 -273 57 5 5 419 28 538 31 l78 1 53 -57z
m-2789 -55 c135 -50 243 -93 241 -96 -4 -4 -598 104 -626 114 -9 3 12 18 55
39 39 18 74 34 78 34 5 1 118 -40 252 -91z m3830 -23 c54 -9 100 -17 102 -19
4 -3 -225 -14 -464 -21 l-158 -4 190 33 c105 18 199 32 210 30 11 -2 65 -11
120 -19z"/>
</g>
</svg>
